<?xml version="1.0" encoding="utf-8"?>
<!-- Generator: Adobe Illustrator 27.5.0, SVG Export Plug-In . SVG Version: 6.00 Build 0)  -->
<svg version="1.1" xmlns="http://www.w3.org/2000/svg" xmlns:xlink="http://www.w3.org/1999/xlink" x="0px" y="0px"
	 viewBox="0 0 500 500" style="enable-background:new 0 0 500 500;" xml:space="preserve">
<g id="BACKGROUND">
	<rect style="fill:#FFFFFF;" width="500" height="500"/>
</g>
<g id="OBJECTS">
	<g>
		<path style="fill:none;" d="M218.661,293.144c0.082-0.117,0.227-0.146,0.376-0.132c-0.065-0.937-0.129-1.875-0.194-2.812
			c-0.112-1.63-0.242-3.321-1.038-4.749c-0.866-1.553-2.402-2.589-3.815-3.668c-6.899-5.27-11.967-13.433-12.507-21.961
			c-1.15,0.619-2.323,1.167-3.547,1.469c-0.644,0.159-1.295,0.287-1.949,0.4c0.214,0.042,0.378,0.215,0.382,0.432
			c-0.008,0.246-0.218,0.444-0.476,0.444l-0.427-0.001l-0.002,0.336l0.427-0.001c0.261,0,0.475,0.203,0.478,0.455
			c0.003,0.251-0.206,0.458-0.468,0.461l-0.311,0.003l0.004,0.358l0.312-0.005c0.257-0.004,0.468,0.191,0.477,0.437
			c-0.005,0.246-0.204,0.449-0.462,0.456l-0.427,0.01l0.011,0.336l0.427-0.012c0.261-0.007,0.479,0.191,0.487,0.442
			c0.008,0.251-0.197,0.463-0.458,0.473l-0.311,0.011l0.011,0.358l0.311-0.013c0.256-0.01,0.471,0.18,0.492,0.425
			c0.007,0.246-0.191,0.454-0.448,0.467l-0.426,0.021l0.017,0.336l0.426-0.023c0.261-0.013,0.483,0.179,0.496,0.43
			c0.013,0.251-0.189,0.468-0.448,0.484l-0.311,0.019l0.026,0.358l0.311-0.02c0.257-0.017,0.479,0.167,0.502,0.413
			c0.011,0.246-0.182,0.459-0.439,0.479l-0.426,0.032l0.024,0.336l0.426-0.033c0.261-0.02,0.484,0.167,0.506,0.418
			c0.023,0.251-0.169,0.472-0.43,0.495l-0.31,0.027l0.033,0.357l0.31-0.028c0.256-0.023,0.482,0.156,0.51,0.401
			c0.016,0.246-0.173,0.464-0.429,0.49l-0.425,0.042l0.034,0.335l0.425-0.044c0.26-0.026,0.493,0.155,0.521,0.405
			c0.028,0.25-0.16,0.477-0.42,0.506l-0.31,0.035l0.04,0.356l0.309-0.036c0.256-0.029,0.484,0.144,0.518,0.388
			c0.023,0.246-0.156,0.468-0.412,0.5l-0.424,0.053l0.044,0.334l0.423-0.054c0.259-0.033,0.496,0.143,0.528,0.392
			c0.033,0.25-0.151,0.481-0.41,0.517l-0.309,0.042l0.047,0.356l0.308-0.043c0.255-0.035,0.491,0.132,0.533,0.375
			c0.03,0.245-0.146,0.472-0.401,0.51l-0.422,0.063l0.05,0.333l0.422-0.064c0.258-0.039,0.498,0.131,0.535,0.38
			c0.036,0.249-0.138,0.485-0.396,0.527l-0.307,0.05l0.059,0.355l0.307-0.05c0.254-0.042,0.492,0.122,0.539,0.365
			c0.034,0.246-0.139,0.478-0.392,0.521l-0.421,0.072l0.058,0.332l0.421-0.073c0.257-0.045,0.502,0.119,0.547,0.365
			c0.045,0.246-0.127,0.485-0.384,0.533l-0.306,0.057l0.064,0.352l0.306-0.058c0.253-0.048,0.491,0.109,0.548,0.344
			c0.043,0.239-0.122,0.472-0.374,0.523l-0.418,0.085l0.067,0.327l0.418-0.087c0.256-0.053,0.503,0.101,0.553,0.344
			c0.047,0.244-0.108,0.481-0.365,0.539l-0.304,0.068l0.081,0.343l0.304-0.07c0.251-0.057,0.498,0.084,0.559,0.316
			c0.049,0.235-0.109,0.474-0.359,0.536l-0.414,0.103l0.08,0.32l0.413-0.106c0.253-0.064,0.51,0.073,0.574,0.307
			c0.064,0.233-0.088,0.48-0.34,0.551l-0.3,0.083l0.092,0.337l0.299-0.086c0.249-0.072,0.493,0.059,0.57,0.28
			c0.066,0.224-0.075,0.466-0.321,0.543l-0.407,0.127l0.099,0.31l0.406-0.131c0.249-0.08,0.51,0.04,0.582,0.267
			c0.072,0.228-0.068,0.482-0.311,0.567l-0.294,0.103l0.122,0.319l0.293-0.107c0.242-0.087,0.504,0.014,0.591,0.227
			c0.076,0.217-0.052,0.467-0.291,0.563l-0.396,0.158l0.114,0.301l0.395-0.162c0.238-0.096,0.512-0.007,0.608,0.202
			c0.095,0.209-0.021,0.467-0.258,0.576l-0.284,0.129l0.139,0.307l0.282-0.133c0.233-0.109,0.496-0.032,0.593,0.17
			c0.096,0.199,0,0.448-0.229,0.568l-0.379,0.197l0.15,0.274l0.376-0.203c0.23-0.123,0.504-0.064,0.611,0.133
			c0.107,0.197,0.011,0.467-0.213,0.601l-0.267,0.16l0.179,0.272l0.264-0.165c0.219-0.135,0.492-0.102,0.615,0.072
			c0.113,0.181,0.036,0.445-0.174,0.592l-0.35,0.244l0.169,0.257l0.346-0.25c0.208-0.148,0.485-0.133,0.623,0.026
			c0.135,0.163,0.079,0.43-0.122,0.597l-0.241,0.197l0.201,0.247l0.236-0.203c0.196-0.166,0.46-0.172,0.593-0.014
			c0.139,0.145,0.108,0.401-0.076,0.582l-0.306,0.297l0.212,0.206l0.299-0.305c0.184-0.185,0.452-0.22,0.598-0.076
			c0.145,0.145,0.124,0.425-0.039,0.618l-0.203,0.237l0.247,0.184l0.196-0.242c0.163-0.199,0.422-0.266,0.581-0.153
			c0.152,0.123,0.159,0.392,0.013,0.604l-0.244,0.35l0.231,0.177l0.234-0.357c0.145-0.217,0.404-0.318,0.578-0.222
			c0.173,0.096,0.211,0.361,0.087,0.59l-0.151,0.272l0.265,0.151l0.143-0.277c0.121-0.231,0.347-0.327,0.525-0.249
			c0.181,0.073,0.247,0.322,0.148,0.559l-0.167,0.393l0.271,0.105l0.157-0.397c0.097-0.242,0.327-0.38,0.512-0.306
			c0.186,0.073,0.271,0.344,0.199,0.586l-0.092,0.297l0.304,0.07l0.084-0.3c0.071-0.247,0.286-0.412,0.482-0.372
			c0.193,0.052,0.307,0.295,0.255,0.547l-0.088,0.418l0.286,0.07l0.078-0.42c0.049-0.259,0.249-0.412,0.449-0.406
			c0.199,0.018,0.339,0.245,0.312,0.504l-0.035,0.31l0.306,0.031l0.026-0.31c0.023-0.256,0.198-0.447,0.394-0.43
			c0.197,0.043,0.342,0.212,0.344,0.479l-0.004,0.427l0.284-0.013l-0.009-0.427c-0.004-0.261,0.149-0.48,0.34-0.486
			c0.192-0.006,0.372,0.202,0.401,0.462l0.033,0.31l0.292-0.047l-0.043-0.309c-0.034-0.255,0.084-0.492,0.262-0.532
			c0.181-0.028,0.375,0.15,0.435,0.4l0.096,0.416l0.276-0.048l-0.109-0.413c-0.064-0.251,0.024-0.512,0.2-0.574
			c0.175-0.063,0.393,0.088,0.484,0.332l0.107,0.293l0.279-0.093l-0.117-0.289c-0.095-0.24-0.028-0.468,0.13-0.572
			c0.167-0.082,0.396,0.035,0.514,0.264l0.193,0.38l0.252-0.128l-0.205-0.374c-0.125-0.233-0.084-0.479,0.083-0.574
			c0.16-0.114,0.408-0.029,0.554,0.188l0.171,0.26l0.25-0.172l-0.179-0.255c-0.147-0.211-0.138-0.47,0.019-0.581
			c0.165-0.1,0.409-0.068,0.576,0.137l0.27,0.33l0.222-0.195l-0.278-0.323c-0.169-0.199-0.182-0.469-0.028-0.603
			c0.157-0.128,0.428-0.095,0.61,0.085l0.218,0.222l0.217-0.234l-0.224-0.217c-0.184-0.18-0.219-0.448-0.082-0.604
			c0.147-0.147,0.42-0.133,0.615,0.034l0.323,0.279l0.195-0.235l-0.328-0.273c-0.2-0.168-0.254-0.445-0.119-0.617
			c0.135-0.173,0.414-0.186,0.624-0.03l0.249,0.187l0.202-0.257l-0.253-0.182C218.617,293.603,218.544,293.331,218.661,293.144z"/>
		<path style="fill:#191823;" d="M340.155,190.197c0.758,0.084,1.504,0.093,2.201-0.184c1.781-0.707,2.359-3.383,1.028-4.762
			c1.173,0.089,2.367-0.614,2.859-1.683c0.492-1.069,0.249-2.432-0.582-3.266c0.123-1.112,0.246-2.224,0.368-3.337
			c0.11-0.999,0.214-2.049-0.17-2.978c-0.384-0.929-1.432-1.667-2.385-1.345c1.824-1.06,1.825-4.179,0.002-5.24
			c-0.809-0.471-1.783-0.541-2.719-0.576c-1.593-0.06-3.188-0.029-4.78,0.052l-0.318-1.776c2.408-0.641,4.033-1.481,3.926-2.133
			c-0.087-0.534-1.322-0.815-3.133-0.81l-3.816-20.812c-0.291-1.585-1.671-2.735-3.279-2.735c-0.199,0-0.401,0.018-0.605,0.056
			l-1.251,0.23c-0.876,0.16-1.637,0.653-2.144,1.386c-0.505,0.733-0.696,1.621-0.535,2.497l3.79,20.668
			c-1.708,0.573-2.78,1.231-2.692,1.763c0.106,0.648,1.901,0.926,4.371,0.768l-0.027,0.07l0.173,0.158l0.016,0.083
			c-0.07,0.059-0.116,0.145-0.098,0.24l0.174,0.206l-0.105,0.243c0.019,0.102,0.099,0.174,0.195,0.201l0.005,0.026
			c-0.08,0.05-0.126,0.136-0.122,0.232c-0.559,0.086-1.12,0.16-1.677,0.264c-0.842,0.156-1.712,0.347-2.391,0.87
			c-0.705,0.543-1.114,1.376-1.499,2.179c-1.502,3.131-3.004,6.262-4.506,9.393c-0.39,0.813-0.97,1.751-1.872,1.736
			c-0.491-0.008-0.918-0.312-1.354-0.538c-2.226-1.154-5.319-0.071-6.339,2.22c-1.007-1.392-3.183-1.244-4.69-0.419
			c-1.507,0.825-2.717,2.149-4.292,2.833c-0.896,0.389-1.871,0.553-2.836,0.7c-7.114,1.078-14.349,1.361-21.526,0.842
			c-0.857-0.062-1.721-0.133-2.585-0.196c-0.068-2.386-0.358-4.765-0.891-7.092c-0.221-0.966-0.482-1.926-0.841-2.85
			c-0.44-1.135-1.023-2.208-1.527-3.317c-4.077-8.976-2.664-19.329-2.791-29.186c-0.126-9.857-2.826-21.059-11.547-25.656
			c-1.323-0.697-2.89-1.371-3.347-2.795c-0.289-0.9-0.041-1.871,0.005-2.815c0.073-1.514-0.383-2.926-1.134-4.227
			c0.414-0.332,0.844-0.644,1.325-0.889c2.178-1.111,8.689-0.797,7.843-4.977c-0.311-1.534-2.047-2.912-1.361-4.319
			c0.187-0.383,0.53-0.664,0.79-1.002c0.794-1.034,0.672-2.658-0.267-3.562c0.647,0.294,1.364-0.415,1.436-1.122
			c0.072-0.706-0.243-1.388-0.383-2.084c-0.14-0.696-0.023-1.562,0.609-1.885c0.307-0.157,0.669-0.149,1.01-0.206
			c1.168-0.195,2.119-1.289,2.149-2.472c0.031-1.183-0.862-2.325-2.018-2.581c1.582-0.214,2.046-2.248,2.13-3.842
			c0.046-0.861,0.085-1.757-0.25-2.553c-0.335-0.795-1.163-1.453-2.011-1.298c-0.108-0.62-0.216-1.239-0.325-1.859
			c3.192,0.59,6.57,0.134,9.491-1.282c2.852-1.382,5.425-4.058,5.35-7.226c-0.011-0.466-0.094-0.964-0.414-1.304
			c-0.29-0.308-0.721-0.432-1.132-0.532c-2.665-0.649-5.437-0.858-8.169-0.615c-2.691,0.239-6.023,0.641-7.504-1.619
			c-0.598-0.912-0.726-2.1-1.445-2.92c-0.384-0.437-0.903-0.729-1.354-1.097c-1.403-1.142-2.075-2.926-3.023-4.467
			c-0.904-1.469-2.098-2.758-3.493-3.771c-0.933-0.677-1.982-1.241-3.123-1.4c-1.263-0.176-2.536,0.153-3.768,0.48
			c-6.581,1.742-13.329,3.562-18.839,7.559c-2.94,2.132-5.427,4.817-7.893,7.484c-2.163,2.338-4.342,4.698-5.978,7.43
			c-0.952,1.589-1.729,3.385-1.584,5.231c0.145,1.846,1.465,3.702,3.304,3.922c-0.503,2.633,1.125,5.511,3.641,6.438
			c0.443,0.163,0.935,0.289,1.24,0.65c0.347,0.411,0.35,1.006,0.293,1.54c-0.169,1.597-0.705,3.15-0.905,4.734
			c-0.017,0-0.034-0.001-0.05-0.001c-0.765,0.005-1.552,0.034-2.251,0.346c-1.582,0.707-2.204,2.971-1.206,4.387
			c0.386,0.548,0.973,0.91,1.617,1.075c0.863,0.222,1.345,1.181,0.972,1.99c-0.262,0.568-0.466,1.163-0.607,1.771
			c-0.249,1.073-1.499,1.516-2.366,0.836c-1.814-1.422-3.996-2.333-6.268-2.187c-2.706,0.173-5.299,2.289-5.808,4.84
			c-0.05,0.249-0.007,0.487,0.072,0.712c-0.457,0.558-0.821,1.203-1.163,1.842c-0.064,0.119-0.127,0.24-0.19,0.36
			c-1.332-1.007-2.598-2.076-3.469-3.453c-1.063-1.68-1.461-3.703-2.436-5.437c-2.698-4.799-8.93-6.175-14.43-6.4
			c-11.562-0.473-23.232,2.002-33.607,7.127c-3.014,1.489-5.999,3.265-8.043,5.934c-1.752,2.288-2.687,5.365-2.033,8.121
			c0.172,0.724-0.148,1.478-0.836,1.76c-1.438,0.59-2.708,1.597-3.042,3.072c-0.339,1.496,1.026,3.148,2.381,3.223
			c0.712,0.039,1.283,0.581,1.387,1.286c1.173,7.959-1.863,16.464-7.904,21.801c-3.087,2.727-6.971,4.786-8.941,8.403
			c-1.016,1.865-1.425,3.993-1.743,6.092c-3.77,24.936,3.892,50.779,17.926,71.733c2.064,3.082,4.349,6.154,7.523,8.073
			c2.77,1.675,6.38,2.286,9.299,1.038c0.692-0.296,1.49-0.074,1.877,0.572c1.474,2.46,3.765,4.393,6.043,6.181
			c6.807,5.342,14.28,10.198,22.689,12.175c-0.139,0.961-0.311,1.918-0.541,2.862c-0.146,0.598-2.42,6.922-2.57,6.815
			c1.437,1.013,3.078,1.734,4.796,2.107c0.168,0.036,0.347,0.069,0.509,0.013c0.222-0.076,0.357-0.296,0.472-0.501
			c1.814-3.234,3.022-6.792,3.628-10.449c0.268,0.009,0.535,0.017,0.803,0.019c0.016,0.25,0.214,0.449,0.463,0.449l0.311,0
			l-0.002,0.35l-0.311,0c-0.261,0-0.471,0.216-0.467,0.483c0.003,0.267,0.217,0.48,0.479,0.477l0.427-0.005l0.004,0.373
			l-0.427,0.006c-0.257,0.004-0.463,0.216-0.466,0.477c0.007,0.261,0.225,0.465,0.482,0.459l0.311-0.008l0.011,0.35l-0.311,0.009
			c-0.261,0.007-0.466,0.228-0.458,0.495c0.008,0.266,0.227,0.474,0.488,0.464l0.426-0.016l0.012,0.373l-0.426,0.017
			c-0.258,0.01-0.459,0.228-0.45,0.489c0.02,0.26,0.239,0.459,0.496,0.446l0.311-0.015l0.018,0.349l-0.311,0.016
			c-0.261,0.014-0.461,0.24-0.447,0.506c0.014,0.266,0.236,0.468,0.498,0.452l0.426-0.026l0.027,0.372l-0.426,0.028
			c-0.257,0.017-0.449,0.239-0.437,0.5c0.025,0.26,0.248,0.453,0.504,0.434l0.311-0.023l0.025,0.349l-0.311,0.024
			c-0.26,0.02-0.458,0.252-0.435,0.517c0.024,0.265,0.255,0.462,0.515,0.439l0.425-0.037l0.034,0.371l-0.425,0.039
			c-0.256,0.023-0.445,0.25-0.427,0.511c0.03,0.259,0.256,0.447,0.512,0.421l0.31-0.031l0.035,0.348l-0.31,0.032
			c-0.26,0.026-0.447,0.263-0.418,0.527s0.264,0.455,0.523,0.426l0.424-0.047l0.041,0.37l-0.424,0.049
			c-0.256,0.029-0.439,0.261-0.417,0.521c0.037,0.258,0.273,0.44,0.527,0.408l0.309-0.038l0.045,0.347l-0.309,0.04
			c-0.259,0.033-0.441,0.273-0.407,0.537c0.034,0.264,0.272,0.449,0.531,0.413l0.423-0.058l0.049,0.369l-0.423,0.059
			c-0.255,0.036-0.43,0.271-0.398,0.53c0.045,0.257,0.282,0.433,0.536,0.395l0.308-0.046l0.052,0.346l-0.308,0.047
			c-0.258,0.039-0.436,0.284-0.396,0.547c0.038,0.264,0.283,0.441,0.541,0.399l0.421-0.068l0.061,0.366l-0.421,0.069
			c-0.254,0.041-0.425,0.281-0.389,0.537c0.049,0.255,0.288,0.425,0.541,0.381l0.307-0.052l0.06,0.345l-0.307,0.054
			c-0.257,0.045-0.427,0.294-0.38,0.557c0.048,0.263,0.295,0.438,0.552,0.39l0.42-0.078l0.067,0.368l-0.419,0.08
			c-0.253,0.048-0.422,0.293-0.373,0.554c0.059,0.258,0.306,0.424,0.558,0.373l0.305-0.062l0.071,0.346l-0.305,0.064
			c-0.256,0.053-0.419,0.31-0.365,0.575c0.051,0.264,0.315,0.434,0.568,0.376l0.417-0.093l0.087,0.369l-0.416,0.096
			c-0.251,0.058-0.405,0.313-0.35,0.575c0.067,0.258,0.318,0.417,0.568,0.354l0.302-0.075l0.086,0.346l-0.302,0.077
			c-0.253,0.064-0.4,0.332-0.327,0.598c0.073,0.266,0.335,0.425,0.587,0.354l0.411-0.115l0.101,0.368l-0.41,0.118
			c-0.245,0.07-0.396,0.337-0.32,0.599c0.089,0.259,0.355,0.406,0.6,0.328l0.297-0.093l0.111,0.345l-0.296,0.096
			c-0.249,0.08-0.381,0.36-0.296,0.626c0.084,0.266,0.356,0.411,0.605,0.323l0.403-0.141l0.137,0.364l-0.401,0.146
			c-0.242,0.088-0.359,0.367-0.266,0.628c0.104,0.257,0.377,0.388,0.616,0.292l0.289-0.115l0.13,0.342l-0.288,0.118
			c-0.246,0.099-0.346,0.392-0.228,0.655c0.118,0.263,0.407,0.387,0.645,0.279l0.389-0.177l0.162,0.358l-0.386,0.182
			c-0.233,0.109-0.328,0.404-0.216,0.663c0.135,0.252,0.435,0.357,0.661,0.238l0.276-0.144l0.179,0.33l-0.274,0.148
			c-0.23,0.123-0.303,0.432-0.162,0.69c0.141,0.258,0.438,0.357,0.661,0.222l0.366-0.219l0.22,0.339l-0.362,0.226
			c-0.219,0.135-0.267,0.442-0.11,0.691c0.167,0.241,0.469,0.318,0.679,0.17l0.256-0.178l0.212,0.317l-0.252,0.183
			c-0.218,0.155-0.243,0.475-0.046,0.712c0.193,0.239,0.513,0.296,0.715,0.13l0.33-0.27l0.26,0.318l-0.324,0.278
			c-0.196,0.166-0.202,0.488-0.015,0.723c0.218,0.214,0.545,0.239,0.728,0.059l0.223-0.217l0.281,0.275l-0.218,0.222
			c-0.184,0.185-0.152,0.513,0.073,0.731c0.225,0.218,0.545,0.232,0.72,0.027l0.278-0.324l0.334,0.256l-0.268,0.332
			c-0.163,0.199-0.097,0.512,0.148,0.705c0.252,0.183,0.57,0.16,0.716-0.052l0.178-0.256l0.319,0.237l-0.171,0.26
			c-0.145,0.217-0.038,0.524,0.24,0.682c0.278,0.159,0.605,0.099,0.73-0.13l0.207-0.373l0.369,0.206l-0.195,0.379
			c-0.118,0.224,0.001,0.543,0.28,0.682c0.291,0.111,0.605,0.012,0.704-0.226l0.122-0.286l0.371,0.146l-0.114,0.29
			c-0.097,0.242,0.064,0.534,0.361,0.648c0.298,0.112,0.6,0.007,0.677-0.252l0.127-0.408l0.405,0.1l-0.116,0.411
			c-0.071,0.247,0.111,0.507,0.408,0.584c0.3,0.066,0.583-0.082,0.634-0.334l0.064-0.305l0.384,0.09l-0.057,0.306
			c-0.049,0.255,0.155,0.533,0.474,0.557c0.316,0.035,0.594-0.149,0.621-0.409l0.048-0.424l0.419,0.042l-0.035,0.425
			c-0.023,0.256,0.207,0.488,0.516,0.523c0.306,0.036,0.571-0.211,0.569-0.459l0.003-0.312l0.405-0.014l0.007,0.311
			c0.004,0.261,0.271,0.464,0.596,0.45c0.326-0.014,0.566-0.239,0.536-0.499l-0.045-0.424c0.143,0,0.284-0.043,0.427-0.063
			l0.059,0.423c0.034,0.255,0.317,0.416,0.637,0.363c0.317-0.066,0.524-0.319,0.464-0.569l-0.07-0.304l0.402-0.079l0.08,0.301
			c0.065,0.254,0.373,0.375,0.687,0.27c0.314-0.106,0.494-0.394,0.402-0.638l-0.146-0.401l0.409-0.144l0.16,0.396
			c0.094,0.238,0.422,0.355,0.706,0.207c0.285-0.149,0.419-0.452,0.301-0.68l-0.141-0.278l0.362-0.186l0.15,0.273
			c0.122,0.228,0.465,0.3,0.745,0.135c0.267-0.179,0.364-0.502,0.219-0.719l-0.235-0.356l0.35-0.24l0.246,0.349
			c0.147,0.211,0.474,0.239,0.735,0.063c0.254-0.185,0.291-0.521,0.132-0.715l-0.197-0.241l0.298-0.259l0.017,0.02
			c0.186,2.705,0.373,5.411,0.559,8.116c0.056,0.811,0.11,1.642-0.11,2.425c-0.295,1.053-1.057,1.918-1.425,2.948
			c-1.687,4.718,5.336,9.316,3.657,14.036c-0.936,2.63-4.339,4.078-4.547,6.861c-0.202,2.694,2.738,5.632,1.006,7.705
			c-0.541,0.648-1.392,0.925-2.137,1.322c-2.879,1.532-3.646,3.754-3.285,6.143c-2.099,1.415-3.984,3.156-5.541,5.176
			c-3.487,4.522-7.902,8.191-11.309,12.797c-2.119,2.865-3.909,5.986-5.069,9.364c-1.181,3.439-1.785,7.257-4.214,9.962
			c-1.983,2.208-5.301,4.173-4.702,7.08c-4.205,2.975-6.173,8.771-4.649,13.691c-1.414,1.061-2.164,2.94-1.869,4.683
			c0.086,0.51,0.254,1.037,0.102,1.532c-0.122,0.398-0.432,0.706-0.729,0.998c-4.453,4.378-8.483,9.184-12.018,14.331
			c-0.82,1.194-1.646,2.665-1.112,4.012c-1.962,0.572-3.262,3.201-3.348,5.243c-0.009,0.211,0,0.392,0.019,0.558
			c0.313,0.217,0.629,0.427,0.937,0.629c0.911,0.597,1.779,1.224,2.655,1.872c0.658,0.487,1.354,0.89,2.07,1.286
			c-0.212-0.117,1.03-0.787,1.203-0.796c1.352-0.07,0.875,1.469,1.512,2.087c0.142,0.138,1.38,0.704,2.266,1.078
			c0.412,0.174,0.871,0.027,1.146-0.326c0.264-0.339,0.616-0.574,1.12-0.52c1.461,0.16,0.389,1.45,1.1,2.105
			c0.21,0.193,0.494,0.278,0.767,0.358c0.977,0.283,1.86,0.528,2.678,0.744c0.404,0.107,0.838,0.041,1.191-0.183
			c0.318-0.202,0.233-0.189,0.483-0.592c0.048-0.077,0.168-0.078,0.257-0.102c0.09-0.024,0.185-0.034,0.276-0.042
			c0.13-0.012,0.268,0.007,0.392,0.042c0.183,0.053,0.319,0.138,0.463,0.259c0.442,0.371,0.322,0.96,0.89,1.324
			c0.714,0.458,1.783,0.367,2.227-0.213c0.477-0.622,0.221-1.397,1.314-1.248c1.972,0.27,1.886,1.659,5.215,3.204
			c1.264,0.586,2.611,0.981,3.986,1.201c8.624,1.377,17.512,1.078,26.024-0.877c1.887-0.434,3.682-1.299,5.011-2.71
			c0.346-0.367,0.632-0.767,0.867-1.189c0.048-2.901-1.06-5.868-3.011-8.093c-2.709-3.09-6.922-2.851-10.725-3.233
			c-4.57-0.459-7.715-2.991-10.616-6.448c-1.615-1.924-2.259-4.623-1.687-7.069c0.345-1.477,1.018-3.271-0.08-4.316
			c2.297,0.275,4.389-1.407,5.724-3.296c1.336-1.889,2.243-4.094,3.849-5.76c1.071-1.111,2.404-1.928,3.603-2.9
			c3.299-2.675,5.494-6.437,7.75-10.035c5.143-8.201,10.968-15.975,17.396-23.213c0.91-1.025,1.867-2.104,2.167-3.441
			c0.216-0.961,0.069-1.963,0.131-2.946c0.084-1.314,0.54-2.576,1.064-3.821c2.115-2.448,3.595-5.398,4.972-8.338
			c2.281-4.869,4.368-9.822,6.33-14.827c0.091,0.063,0.175,0.133,0.268,0.194c0.506,0.333,1.051,0.654,1.465,1.083
			c-1.306,5.08-0.61,10.488,0.845,15.529c1.88,6.514,5.023,12.656,9.179,18.011c1.827,2.354,3.711,4.424,5.213,7.001
			c1.577,2.707,4.388,4.407,5.897,7.107c0.328,0.588,0.547,1.224,0.724,1.876c-0.612,0.197-1.115,0.644-1.165,1.282
			c-0.013,0.168,0.006,0.344,0.093,0.488c0.103,0.173,0.285,0.278,0.453,0.389c0.559,0.369,0.998,0.85,1.352,1.395
			c0.469,2.531,0.858,5.076,1.162,7.631c-0.039,1.462,0.001,2.911,0.436,4.284c0.007,0.086,0.018,0.173,0.025,0.259
			c0.194,2.434,0.32,4.915,1.159,7.209c0.569,1.557,1.54,3.025,2.834,4.029c0.308,0.84,0.876,1.543,1.639,2.213
			c0.791,0.695,1.736,1.348,2.802,1.499c0.2,0.028,2.867-0.214,2.593-0.658c-0.212-0.344-0.235-0.797-0.06-1.16
			c0.68-0.585,1.535,0.562,2.415,0.739c0.403,0.081,0.815-0.059,1.197-0.21c1.18-0.465,2.312-1.053,3.372-1.751
			c-0.352-0.552-0.322-1.32,0.07-1.844c0.6,0.673,1.598,0.961,2.464,0.711c0.905-0.261,1.567-1.016,2.176-1.734
			c-0.686-0.217-0.663-1.354-0.032-1.698c0.631-0.345,1.469,0.011,1.867,0.61c0.958-0.573,2.066-1.562,1.618-2.585
			c-0.121-0.277-0.346-0.497-0.485-0.766c-0.264-0.511-0.174-1.081,0.073-1.613c0.495-0.31,1.017-0.571,1.59-0.739
			c1.088-0.32,2.242-0.293,3.374-0.371c7.831-0.537,14.351-5.98,20.1-11.324c2.276-2.116,4.563-4.302,6.085-7.012
			c1.522-2.71,2.194-6.063,1.064-8.957c-0.941-2.409-3.126-4.293-5.648-4.868c-2.522-0.575-5.308,0.175-7.2,1.939
			c-0.586,0.546-1.091,1.182-1.727,1.67c-0.812,0.623-1.796,0.974-2.767,1.298c-4.057,1.356-8.21,2.423-12.418,3.191
			c-1.846,0.337-3.937,0.562-5.429-0.576c-0.638-0.487-1.175-1.222-1.973-1.309c-0.425-0.046-0.857,0.109-1.279,0.038
			c-0.543-0.091-0.951-0.528-1.316-0.94c-1.91-2.156-3.958-4.889-3.098-7.638c0.21-0.671,0.591-1.309,0.592-2.012
			c0.001-1.679-1.953-2.507-3.313-3.49c-3.605-2.604-3.738-7.798-5.336-11.948c-1.184-3.076-3.335-5.864-3.603-9.15
			c-0.281-3.447,1.585-6.845,1.085-10.266c-0.163-1.116-0.574-2.182-0.788-3.29c-0.857-4.426,1.474-9.04,0.48-13.437
			c-0.157-0.695-0.419-1.384-0.853-1.942c-0.017-0.097-0.024-0.194-0.042-0.291c-0.611-3.263-2.092-6.358-4.248-8.882
			c-0.759-0.888-1.607-1.717-2.171-2.74c-0.573-1.04-0.819-2.223-1.182-3.354c-1.384-4.308-4.464-7.857-6.318-11.985
			c-0.218-0.485-0.409-0.979-0.594-1.475c0.268-3.595,0.222-7.21,0.115-10.816c-0.258-8.672-0.763-17.337-1.488-25.983
			c3.544-2.078,6.299-5.569,7.801-9.441c2.024-5.218,2.018-11.032,1.092-16.551c-0.594-3.544-1.88-7.418-4.791-9.328
			c-0.595-0.39-0.851-1.127-0.589-1.788c0.042-0.105,0.083-0.211,0.124-0.316c9.859,0.657,19.789,0.242,29.557-1.241
			c2.28-0.346,4.561-0.753,6.757-1.458c1.118-0.359,2.22-0.797,3.38-0.973c1.799-0.273,3.652,0.095,5.449-0.194
			c2.107-0.339,3.958-1.547,5.737-2.726c0.757-0.502,1.515-1.028,2.177-1.644l0.019,0.112l-0.212,0.168
			c-0.037,0.111-0.001,0.228,0.082,0.298c-0.112-0.001-0.219,0.068-0.261,0.181l0.052,0.275l-0.209,0.173
			c-0.035,0.112,0.003,0.229,0.088,0.297c-0.112,0.001-0.218,0.073-0.258,0.187l0.057,0.275l-0.205,0.178
			c-0.033,0.113,0.008,0.229,0.095,0.296c-0.112,0.004-0.216,0.079-0.254,0.194l0.062,0.273l-0.199,0.185
			c-0.029,0.114,0.014,0.23,0.103,0.294c-0.112,0.007-0.214,0.085-0.248,0.202l0.069,0.272l-0.193,0.192
			c-0.026,0.116,0.022,0.23,0.112,0.292c-0.112,0.011-0.211,0.092-0.241,0.211l0.076,0.27l-0.187,0.199
			c-0.021,0.117,0.03,0.23,0.123,0.289c-0.111,0.015-0.208,0.1-0.234,0.221l0.086,0.268l-0.18,0.207
			c-0.017,0.118,0.04,0.23,0.134,0.285c-0.111,0.02-0.203,0.109-0.224,0.231l0.097,0.265l-0.172,0.215
			c-0.011,0.12,0.05,0.229,0.147,0.28c-0.109,0.025-0.198,0.119-0.213,0.242l0.11,0.261l-0.163,0.224
			c-0.005,0.121,0.062,0.227,0.162,0.273c-0.108,0.03-0.191,0.129-0.2,0.254l0.123,0.256l-0.153,0.233
			c0.002,0.121,0.075,0.225,0.177,0.265c-0.106,0.036-0.184,0.14-0.185,0.265l0.137,0.25l-0.141,0.242
			c0.009,0.121,0.088,0.221,0.193,0.255c-0.104,0.042-0.175,0.151-0.169,0.277l0.152,0.242l-0.128,0.25
			c0.017,0.121,0.102,0.215,0.209,0.244c-0.101,0.049-0.165,0.162-0.151,0.287l0.168,0.232l-0.111,0.259
			c0.019,0.121,0.115,0.214,0.221,0.235c-0.097,0.057-0.154,0.177-0.131,0.305c0.017,0.111,0.1,0.192,0.191,0.223l-0.081,0.272
			c0.03,0.122,0.13,0.204,0.24,0.215c-0.091,0.065-0.135,0.191-0.099,0.315l0.208,0.205l-0.052,0.279
			c0.044,0.118,0.148,0.191,0.258,0.192c-0.086,0.074-0.114,0.203-0.065,0.324l0.228,0.185l-0.024,0.285
			c0.058,0.113,0.171,0.176,0.279,0.165c-0.077,0.083-0.099,0.218-0.033,0.333l0.25,0.16l0.006,0.29l0.302,0.133
			c-0.065,0.092-0.07,0.229,0.007,0.339l0.274,0.13l0.045,0.29l0.321,0.094l0.059,0.339l0.293,0.092l0.096,0.283l0.335,0.046
			c-0.034,0.108,0.012,0.24,0.122,0.326l0.308,0.043l0.152,0.262c0.116,0.073,0.254,0.06,0.341-0.014
			c-0.011,0.112,0.062,0.234,0.191,0.296c0.11,0.057,0.23,0.045,0.314-0.017c0.02,0.093,0.096,0.18,0.208,0.223
			c0.133,0.043,0.263,0.011,0.333-0.082c0.013,0.112,0.112,0.213,0.253,0.245c0.122,0.026,0.236-0.004,0.303-0.079
			c0.04,0.087,0.133,0.16,0.251,0.174c0.139,0.013,0.258-0.057,0.306-0.156c0.037,0.107,0.154,0.19,0.295,0.189
			c0.122,0.001,0.225-0.062,0.274-0.147c0.056,0.08,0.159,0.127,0.275,0.122c0.134-0.017,0.236-0.104,0.262-0.212
			c0.056,0.1,0.182,0.158,0.318,0.134c0.116-0.022,0.205-0.098,0.237-0.192c0.067,0.068,0.175,0.101,0.285,0.075
			c0.127-0.036,0.21-0.14,0.219-0.249c0.069,0.088,0.201,0.13,0.328,0.085c0.111-0.036,0.182-0.129,0.201-0.226l0.288,0.035
			c0.118-0.053,0.189-0.159,0.182-0.271c0.08,0.078,0.213,0.098,0.332,0.038l0.172-0.243l0.288-0.002l0.143-0.295l0.337,0.003
			l0.136-0.266l0.288-0.031l0.103-0.311l0.333-0.035l0.105-0.276l0.278-0.066l0.073-0.314l0.322-0.073l0.076-0.283l0.269-0.092
			l0.035-0.322l0.318-0.098l0.043-0.291l0.261-0.114l0.005-0.322l0.304-0.127l0.021-0.289l0.245-0.137l-0.021-0.319
			c0.113,0.019,0.232-0.038,0.291-0.151l-0.005-0.29l0.237-0.154c0.049-0.113,0.026-0.239-0.051-0.317
			c0.112,0.009,0.227-0.056,0.281-0.172l-0.03-0.289l0.222-0.172c0.043-0.115,0.014-0.237-0.071-0.31
			c0.112,0,0.219-0.074,0.262-0.194l-0.048-0.284l0.207-0.188c0.033-0.119-0.009-0.239-0.096-0.305
			c0.111-0.008,0.22-0.089,0.251-0.211l-0.073-0.279l0.196-0.199c0.026-0.119-0.027-0.235-0.118-0.295
			c0.111-0.014,0.208-0.101,0.235-0.223l-0.087-0.272l0.181-0.209c0.018-0.119-0.037-0.232-0.131-0.286
			c0.111-0.021,0.201-0.112,0.22-0.235l-0.102-0.266l0.171-0.217c0.011-0.119-0.051-0.228-0.148-0.278
			c0.109-0.026,0.198-0.121,0.212-0.244l-0.117-0.259l0.161-0.223c0.009-0.119-0.06-0.224-0.159-0.27
			c0.108-0.03,0.191-0.128,0.2-0.251l-0.124-0.253l0.151-0.227c0.002-0.119-0.068-0.221-0.168-0.262
			c0.108-0.034,0.188-0.134,0.191-0.256l-0.134-0.247l0.146-0.231c-0.002-0.118-0.076-0.217-0.178-0.256
			c0.106-0.037,0.183-0.138,0.185-0.26l-0.14-0.242l0.139-0.233c-0.004-0.117-0.079-0.214-0.182-0.25
			c0.105-0.039,0.18-0.141,0.178-0.262l-0.144-0.239l0.135-0.234c-0.006-0.116-0.083-0.212-0.187-0.246
			c0.104-0.04,0.179-0.144,0.175-0.263l-0.148-0.235l0.133-0.235c-0.007-0.115-0.086-0.209-0.189-0.242
			c0.104-0.041,0.177-0.144,0.172-0.263l-0.149-0.233l0.131-0.234c-0.008-0.115-0.086-0.208-0.19-0.241
			c0.104-0.041,0.179-0.144,0.176-0.263l-0.145-0.232l0.135-0.233c-0.006-0.114-0.082-0.208-0.185-0.24
			c0.105-0.041,0.179-0.144,0.177-0.262l-0.145-0.232l0.135-0.233c-0.006-0.115-0.082-0.208-0.185-0.24
			c0.105-0.041,0.179-0.144,0.177-0.262l-0.145-0.232l0.135-0.233c-0.006-0.115-0.082-0.208-0.185-0.241
			c0.105-0.041,0.179-0.143,0.177-0.262l-0.145-0.232l0.135-0.233c-0.006-0.115-0.082-0.208-0.185-0.241
			c0.105-0.041,0.179-0.143,0.177-0.262l-0.145-0.232l0.135-0.233c-0.006-0.114-0.082-0.208-0.185-0.241
			c0.105-0.041,0.179-0.143,0.177-0.262l-0.145-0.233l0.135-0.233c-0.006-0.115-0.082-0.208-0.185-0.241
			c0.105-0.041,0.179-0.143,0.177-0.261l-0.145-0.233l0.135-0.233c-0.006-0.115-0.082-0.208-0.185-0.242
			c0.105-0.041,0.179-0.143,0.177-0.261l-0.145-0.233l0.135-0.232c-0.006-0.115-0.082-0.208-0.185-0.242
			c0.105-0.04,0.179-0.142,0.177-0.261l-0.145-0.233l0.135-0.232c-0.006-0.115-0.082-0.208-0.185-0.242
			c0.105-0.04,0.179-0.142,0.177-0.261l-0.145-0.233l0.135-0.232c-0.006-0.114-0.082-0.208-0.185-0.242
			c0.105-0.04,0.179-0.142,0.177-0.261l-0.145-0.233l0.135-0.232c-0.006-0.115-0.082-0.209-0.185-0.242
			c0.105-0.04,0.179-0.142,0.177-0.26l-0.145-0.234l0.135-0.232c-0.006-0.115-0.082-0.209-0.185-0.242
			c0.105-0.04,0.179-0.142,0.177-0.26l-0.145-0.234l0.135-0.232c-0.006-0.115-0.082-0.209-0.185-0.243
			c0.105-0.04,0.179-0.141,0.177-0.26l-0.145-0.234l0.135-0.231c-0.006-0.115-0.082-0.209-0.185-0.243
			c0.105-0.04,0.179-0.141,0.177-0.26l-0.145-0.234l0.135-0.231c-0.006-0.115-0.082-0.209-0.186-0.243
			c0.084-0.032,0.137-0.108,0.158-0.197l32.395,173.237c0.071,0.381,0.4,0.676,0.787,0.667c0.797-0.019,1.603-0.158,2.402-0.401
			c0.386-0.117,0.612-0.52,0.541-0.917L340.155,190.197z M218.874,294.19l-0.249-0.187c-0.21-0.156-0.489-0.143-0.624,0.03
			c-0.135,0.173-0.081,0.449,0.119,0.617l0.328,0.273l-0.195,0.235l-0.323-0.279c-0.195-0.167-0.469-0.182-0.615-0.034
			c-0.137,0.155-0.102,0.424,0.082,0.604l0.224,0.217l-0.217,0.234l-0.218-0.222c-0.182-0.18-0.452-0.213-0.61-0.085
			c-0.155,0.133-0.142,0.404,0.028,0.603l0.278,0.323l-0.221,0.195l-0.27-0.33c-0.167-0.204-0.411-0.237-0.576-0.137
			c-0.157,0.111-0.165,0.37-0.019,0.581l0.179,0.255l-0.25,0.172l-0.171-0.26c-0.145-0.217-0.394-0.302-0.554-0.188
			c-0.167,0.095-0.207,0.341-0.083,0.574l0.205,0.374l-0.252,0.128l-0.193-0.38c-0.118-0.229-0.347-0.346-0.514-0.264
			c-0.158,0.104-0.225,0.332-0.13,0.572l0.117,0.289l-0.279,0.093l-0.107-0.293c-0.092-0.245-0.309-0.395-0.484-0.332
			c-0.175,0.062-0.264,0.322-0.2,0.574l0.109,0.413l-0.276,0.048l-0.096-0.416c-0.06-0.25-0.254-0.428-0.435-0.4
			c-0.179,0.04-0.296,0.277-0.262,0.532l0.043,0.309l-0.292,0.047l-0.033-0.31c-0.029-0.26-0.209-0.468-0.401-0.462
			c-0.192,0.006-0.344,0.225-0.34,0.486l0.009,0.427l-0.284,0.013l0.004-0.427c-0.001-0.266-0.146-0.435-0.344-0.479
			c-0.195-0.017-0.371,0.174-0.394,0.43l-0.026,0.31l-0.306-0.031l0.035-0.31c0.027-0.26-0.112-0.487-0.312-0.504
			c-0.201-0.006-0.4,0.148-0.449,0.406l-0.078,0.42l-0.286-0.07l0.088-0.418c0.052-0.252-0.063-0.495-0.255-0.547
			c-0.196-0.04-0.411,0.125-0.482,0.372l-0.084,0.3l-0.304-0.07l0.092-0.297c0.072-0.242-0.013-0.513-0.199-0.586
			c-0.185-0.075-0.414,0.063-0.512,0.306l-0.157,0.397l-0.271-0.105l0.167-0.393c0.099-0.237,0.033-0.486-0.148-0.559
			c-0.178-0.078-0.404,0.018-0.525,0.249l-0.143,0.277l-0.265-0.151l0.151-0.272c0.125-0.229,0.087-0.495-0.087-0.59
			c-0.173-0.096-0.433,0.005-0.578,0.222l-0.234,0.357l-0.231-0.177l0.244-0.35c0.146-0.212,0.139-0.481-0.013-0.604
			c-0.16-0.113-0.419-0.046-0.581,0.153l-0.196,0.242l-0.247-0.184l0.203-0.237c0.164-0.192,0.185-0.473,0.039-0.618
			c-0.145-0.144-0.414-0.11-0.598,0.076l-0.299,0.305l-0.212-0.206l0.306-0.297c0.184-0.181,0.215-0.437,0.076-0.582
			c-0.133-0.158-0.397-0.152-0.593,0.014l-0.236,0.203l-0.201-0.247l0.241-0.197c0.201-0.167,0.257-0.434,0.122-0.597
			c-0.137-0.16-0.414-0.174-0.623-0.026l-0.346,0.25l-0.169-0.257l0.35-0.244c0.21-0.148,0.287-0.411,0.174-0.592
			c-0.123-0.174-0.396-0.207-0.615-0.072l-0.264,0.165l-0.179-0.272l0.267-0.16c0.224-0.135,0.319-0.404,0.213-0.601
			c-0.107-0.197-0.38-0.257-0.611-0.133l-0.376,0.203l-0.15-0.274l0.379-0.197c0.229-0.121,0.325-0.369,0.229-0.568
			c-0.098-0.202-0.36-0.279-0.593-0.17l-0.282,0.133l-0.139-0.307l0.284-0.129c0.237-0.109,0.353-0.367,0.258-0.576
			c-0.095-0.209-0.369-0.298-0.608-0.202l-0.395,0.162l-0.114-0.301l0.396-0.158c0.239-0.096,0.367-0.346,0.291-0.563
			c-0.087-0.212-0.349-0.314-0.591-0.227l-0.293,0.107l-0.122-0.319l0.294-0.103c0.243-0.085,0.383-0.339,0.311-0.567
			c-0.073-0.227-0.333-0.347-0.582-0.267l-0.406,0.131l-0.099-0.31l0.407-0.127c0.245-0.077,0.386-0.319,0.321-0.543
			c-0.077-0.221-0.321-0.352-0.57-0.28l-0.299,0.086l-0.092-0.337l0.3-0.083c0.251-0.071,0.404-0.317,0.34-0.551
			c-0.064-0.234-0.321-0.371-0.574-0.307l-0.413,0.106l-0.08-0.32l0.414-0.103c0.25-0.062,0.408-0.301,0.359-0.536
			c-0.061-0.232-0.308-0.373-0.559-0.316l-0.304,0.07l-0.081-0.343l0.304-0.068c0.257-0.059,0.412-0.295,0.365-0.539
			c-0.05-0.243-0.297-0.397-0.553-0.344l-0.418,0.087l-0.067-0.327l0.418-0.085c0.252-0.052,0.417-0.284,0.374-0.523
			c-0.057-0.236-0.295-0.392-0.548-0.344l-0.306,0.058l-0.064-0.352l0.306-0.057c0.257-0.048,0.429-0.286,0.384-0.533
			c-0.045-0.246-0.29-0.41-0.547-0.365l-0.42,0.073l-0.058-0.332l0.421-0.072c0.253-0.043,0.426-0.275,0.392-0.521
			c-0.047-0.243-0.285-0.407-0.539-0.365l-0.307,0.05l-0.059-0.355l0.307-0.05c0.258-0.042,0.432-0.278,0.396-0.527
			c-0.037-0.249-0.277-0.419-0.535-0.38l-0.422,0.064l-0.05-0.333l0.422-0.063c0.254-0.038,0.431-0.265,0.401-0.51
			c-0.043-0.243-0.279-0.41-0.533-0.375l-0.308,0.043l-0.047-0.356l0.309-0.042c0.259-0.036,0.442-0.267,0.41-0.517
			c-0.033-0.25-0.269-0.425-0.528-0.392l-0.423,0.054l-0.044-0.334l0.424-0.053c0.256-0.032,0.435-0.254,0.412-0.5
			c-0.033-0.244-0.262-0.417-0.518-0.388l-0.309,0.036l-0.04-0.356l0.31-0.035c0.26-0.029,0.448-0.256,0.42-0.506
			c-0.028-0.25-0.261-0.431-0.521-0.405l-0.425,0.044l-0.034-0.335l0.425-0.042c0.256-0.026,0.445-0.244,0.429-0.49
			c-0.029-0.245-0.254-0.423-0.51-0.401l-0.31,0.028l-0.033-0.357l0.31-0.027c0.26-0.023,0.453-0.245,0.43-0.495
			c-0.022-0.251-0.245-0.438-0.506-0.418l-0.426,0.033l-0.024-0.336l0.426-0.032c0.257-0.019,0.45-0.233,0.439-0.479
			c-0.024-0.245-0.246-0.429-0.502-0.413l-0.311,0.02l-0.026-0.358l0.311-0.019c0.259-0.016,0.461-0.233,0.448-0.484
			c-0.013-0.251-0.235-0.444-0.496-0.43l-0.426,0.023l-0.017-0.336l0.426-0.021c0.257-0.013,0.455-0.221,0.448-0.467
			c-0.021-0.246-0.236-0.435-0.492-0.425l-0.311,0.013l-0.011-0.358l0.311-0.011c0.261-0.01,0.466-0.221,0.458-0.473
			c-0.008-0.251-0.226-0.449-0.487-0.442l-0.427,0.012l-0.011-0.336l0.427-0.01c0.258-0.006,0.457-0.21,0.462-0.456
			c-0.009-0.246-0.22-0.441-0.477-0.437l-0.312,0.005l-0.004-0.358l0.311-0.004c0.261-0.003,0.471-0.21,0.468-0.461
			c-0.003-0.251-0.217-0.455-0.478-0.455l-0.427,0.001l0.002-0.336l0.427,0.001c0.257,0,0.467-0.198,0.476-0.444
			c-0.004-0.217-0.168-0.39-0.382-0.432c0.654-0.112,1.305-0.241,1.949-0.4c1.224-0.302,2.397-0.85,3.547-1.469
			c0.54,8.528,5.608,16.692,12.507,21.961c1.413,1.079,2.949,2.115,3.815,3.668c0.796,1.427,0.926,3.118,1.038,4.749
			c0.065,0.937,0.129,1.875,0.194,2.812c-0.15-0.014-0.294,0.015-0.376,0.132c-0.117,0.187-0.044,0.46,0.162,0.608l0.253,0.182
			L218.874,294.19z M323.95,199.769c-0.012,0.016-0.03,0.026-0.039,0.045l0.039,0.273l-0.216,0.157l0,0v0l0,0l0,0l0.071,0.297
			c-0.112-0.006-0.221,0.056-0.266,0.166l0.038,0.273l-0.217,0.156l0.071,0.298c-0.015-0.001-0.027,0.009-0.041,0.01
			c-0.069-0.451-0.225-0.883-0.506-1.254C323.237,200.053,323.594,199.911,323.95,199.769z M333.961,210.23l-0.141,0.232
			c-0.001,0.116,0.074,0.214,0.179,0.252c-0.103,0.035-0.179,0.127-0.184,0.239l0.134,0.226l-0.147,0.227
			c-0.003,0.115,0.07,0.215,0.173,0.256c-0.104,0.032-0.183,0.121-0.192,0.232l0.129,0.229l-0.156,0.221
			c-0.008,0.114,0.061,0.216,0.164,0.26l-0.2,0.223l0.118,0.232l-0.161,0.213c-0.013,0.113,0.051,0.216,0.151,0.265l-0.208,0.213
			l0.109,0.236l-0.173,0.204c-0.017,0.112,0.045,0.218,0.142,0.271l-0.221,0.2l0.098,0.24l-0.184,0.193
			c-0.024,0.109,0.03,0.218,0.125,0.277l-0.228,0.187l0.081,0.243l-0.193,0.181l0.107,0.281l-0.241,0.168l0.068,0.247l-0.208,0.163
			l0.09,0.288l-0.254,0.149l0.048,0.251l-0.216,0.148l0.064,0.292l-0.26,0.131l0.027,0.252l-0.228,0.129l0.044,0.297l-0.274,0.106
			l0.011,0.255l-0.239,0.107l0.019,0.298l-0.279,0.083l-0.014,0.251l-0.242,0.089l-0.01,0.295l-0.284,0.056l-0.035,0.249
			l-0.252,0.06l-0.032,0.297l-0.29,0.022l-0.058,0.244l-0.255,0.033l-0.065,0.286l-0.285-0.005l-0.086,0.23l-0.254,0.006
			c-0.085,0.063-0.124,0.165-0.097,0.274l-0.282-0.042l-0.11,0.223l-0.253-0.032c-0.093,0.046-0.139,0.155-0.126,0.266l-0.275-0.083
			l-0.136,0.206l-0.243-0.058c-0.097,0.034-0.157,0.13-0.159,0.242l-0.257-0.116l-0.16,0.183l-0.228-0.097l-0.188,0.213
			l-0.229-0.155l-0.182,0.152l-0.2-0.136l-0.217,0.176l-0.187-0.197l-0.202,0.114l-0.161-0.181l-0.246,0.131l-0.137-0.236
			l-0.222,0.07l-0.121-0.206l-0.269,0.071l-0.088-0.258l-0.234,0.017l-0.081-0.227l-0.281,0.01l-0.043-0.272l-0.236-0.032
			l-0.045-0.241l-0.282-0.044l-0.003-0.279l-0.231-0.074l-0.013-0.249l-0.275-0.088l0.033-0.281l-0.223-0.106l0.019-0.254
			c-0.054-0.09-0.158-0.138-0.267-0.122l0.066-0.281l-0.214-0.131l0.048-0.255c-0.04-0.099-0.146-0.155-0.257-0.151l0.097-0.275
			l-0.201-0.154l0.073-0.25c-0.029-0.104-0.128-0.171-0.239-0.177l0.12-0.265l-0.183-0.173l0.093-0.241
			c-0.018-0.106-0.109-0.182-0.219-0.199l0.142-0.253l-0.162-0.196l0.115-0.239c-0.013-0.111-0.099-0.196-0.208-0.222l0.154-0.248
			l-0.149-0.206l0.13-0.232c-0.005-0.111-0.086-0.203-0.193-0.235l0.17-0.239l-0.139-0.215l0.144-0.225
			c0.002-0.112-0.073-0.208-0.178-0.247l0.184-0.229l-0.128-0.224l0.157-0.218c0.008-0.112-0.061-0.213-0.164-0.257l0.197-0.22
			l-0.117-0.231l0.168-0.21c0.014-0.112-0.05-0.216-0.15-0.266l0.208-0.211l-0.107-0.237l0.178-0.203
			c0.019-0.112-0.039-0.219-0.137-0.273l0.218-0.203l-0.098-0.243l0.186-0.196c0.024-0.112-0.03-0.222-0.125-0.28l0.227-0.195
			l-0.089-0.247l0.194-0.19c0.028-0.111-0.021-0.223-0.115-0.285l0.234-0.187l-0.08-0.251l0.199-0.185
			c0.032-0.111-0.014-0.225-0.105-0.289l0.241-0.181l-0.072-0.254l0.204-0.18c0.036-0.11-0.007-0.226-0.096-0.293l0.246-0.175
			l-0.064-0.257l0.207-0.176c0.038-0.11-0.001-0.227-0.089-0.296l0.251-0.17l-0.058-0.258l0.21-0.172
			c0.041-0.109,0.004-0.228-0.082-0.299l0.254-0.166l-0.052-0.26l0.213-0.169c0.042-0.109,0.007-0.228-0.078-0.301l0.258-0.162
			l-0.048-0.261l0.216-0.167c0.042-0.109,0.01-0.229-0.074-0.303l0.26-0.16l-0.044-0.262l0.219-0.165l-0.072-0.304l0.261-0.158
			l-0.042-0.263l0.22-0.164l-0.07-0.305l0.262-0.158l-0.041-0.264l0.221-0.164c0.046-0.109,0.014-0.231-0.069-0.306l0.262-0.158
			l-0.04-0.265l0.222-0.165c0.046-0.11,0.014-0.231-0.068-0.307l0.262-0.159l-1.443-0.602l1.444,0.6l-0.042-0.265l0.221-0.165
			c0.046-0.11,0.014-0.231-0.07-0.306l0.262-0.159l-0.041-0.265l0.221-0.167c0.045-0.11,0.013-0.232-0.07-0.307l0.261-0.161
			l-0.042-0.265l0.15-0.114c2.705-1.233,5.239-2.779,6.88-5.205c0.11-0.163,0.217-0.331,0.324-0.501
			c0.013,0.106,0.08,0.194,0.177,0.226c-0.102,0.039-0.174,0.137-0.176,0.252l0.144,0.226l-0.136,0.241
			c0.002,0.119,0.08,0.217,0.186,0.252c-0.102,0.039-0.175,0.137-0.176,0.252l0.144,0.225l-0.136,0.241
			c0.002,0.119,0.08,0.217,0.186,0.252c-0.102,0.039-0.175,0.137-0.176,0.252l0.144,0.225l-0.136,0.241
			c0.002,0.119,0.08,0.217,0.186,0.252c-0.102,0.039-0.174,0.137-0.176,0.252l0.144,0.225l-0.136,0.241
			c0.002,0.119,0.08,0.217,0.186,0.251c-0.102,0.039-0.174,0.137-0.176,0.252l0.144,0.225l-0.136,0.241
			c0.002,0.119,0.08,0.217,0.186,0.251c-0.102,0.039-0.174,0.138-0.176,0.253l0.144,0.225l-0.136,0.242
			c0.002,0.119,0.08,0.216,0.186,0.251c-0.102,0.039-0.174,0.138-0.176,0.253l0.144,0.225l-0.136,0.242
			c0.002,0.119,0.08,0.216,0.186,0.251c-0.102,0.04-0.174,0.138-0.176,0.253l0.144,0.225l-0.136,0.242
			c0.002,0.119,0.08,0.216,0.186,0.251c-0.102,0.04-0.174,0.138-0.176,0.253l0.144,0.224l-0.136,0.242
			c0.002,0.119,0.08,0.216,0.186,0.25c-0.102,0.04-0.174,0.138-0.176,0.253l0.144,0.224l-0.136,0.242
			c0.002,0.119,0.08,0.216,0.186,0.25c-0.102,0.04-0.174,0.139-0.176,0.254l0.144,0.224l-0.136,0.242
			c0.002,0.119,0.08,0.216,0.186,0.25c-0.102,0.04-0.174,0.139-0.176,0.254l0.144,0.224l-0.136,0.243
			c0.002,0.119,0.08,0.216,0.186,0.25c-0.102,0.04-0.174,0.139-0.176,0.254l0.144,0.224l-0.136,0.243
			c0.002,0.119,0.08,0.216,0.186,0.25c-0.102,0.04-0.174,0.139-0.176,0.254l0.144,0.224l-0.136,0.243
			c0.002,0.119,0.08,0.216,0.187,0.249c-0.101,0.04-0.172,0.139-0.172,0.254l0.148,0.223l-0.132,0.242
			c0.004,0.118,0.084,0.215,0.191,0.248c-0.102,0.04-0.172,0.138-0.172,0.252l0.147,0.222l-0.133,0.239
			c0.004,0.118,0.081,0.214,0.188,0.248c-0.102,0.039-0.174,0.135-0.175,0.249l0.145,0.223l-0.137,0.236
			c0.002,0.117,0.079,0.214,0.185,0.25c-0.102,0.037-0.176,0.132-0.18,0.244L333.961,210.23z M335.102,191.328
			c0.011-0.004,0.017-0.016,0.028-0.022l0.009,0.048C335.125,191.347,335.117,191.333,335.102,191.328z M335.152,191.802
			l0.053-0.091l0.048,0.254L335.152,191.802z"/>
		<path style="fill:#191823;" d="M382.686,422.413c-0.035-0.155-0.626-0.163-1.454-0.049l-12.55-71.707
			c-0.485,0.084-2.801,0.518-3.286,0.592l13.78,71.555c-0.927,0.268-1.564,0.562-1.526,0.732c0.035,0.154,0.618,0.163,1.437,0.051
			l1.82,2.427l0.666-2.997C382.269,422.788,382.718,422.557,382.686,422.413z"/>
	</g>
</g>
</svg>
